<?xml version="1.0" encoding="UTF-8" standalone="no"?>
<!DOCTYPE svg PUBLIC "-//W3C//DTD SVG 1.1//EN" "http://www.w3.org/Graphics/SVG/1.1/DTD/svg11.dtd">
<svg width="100%" height="100%" viewBox="0 0 1000 1000" version="1.1" xmlns="http://www.w3.org/2000/svg" xmlns:xlink="http://www.w3.org/1999/xlink" xml:space="preserve" xmlns:serif="http://www.serif.com/" style="fill-rule:evenodd;clip-rule:evenodd;stroke-linejoin:round;stroke-miterlimit:2;">
    <g transform="matrix(1,0,0,1,-178.167,209.419)">
        <path d="M799.122,262.768C799.122,211.361 757.386,169.625 705.979,169.625L271.31,169.625C219.903,169.625 178.167,211.361 178.167,262.768L178.167,697.437C178.167,748.844 219.903,790.581 271.31,790.581L705.979,790.581C757.386,790.581 799.122,748.844 799.122,697.437L799.122,262.768Z" style="fill:url(#_Linear1);"/>
    </g>
    <g transform="matrix(1,0,0,1,200.878,-169.625)">
        <path d="M799.122,262.768C799.122,211.361 757.386,169.625 705.979,169.625L271.31,169.625C219.903,169.625 178.167,211.361 178.167,262.768L178.167,697.437C178.167,748.844 219.903,790.581 271.31,790.581L705.979,790.581C757.386,790.581 799.122,748.844 799.122,697.437L799.122,262.768Z" style="fill:url(#_Linear2);"/>
    </g>
    <defs>
        <linearGradient id="_Linear1" x1="0" y1="0" x2="1" y2="0" gradientUnits="userSpaceOnUse" gradientTransform="matrix(764.855,-791.743,791.743,764.855,293.168,695.535)"><stop offset="0" style="stop-color:rgb(0,120,255);stop-opacity:1"/><stop offset="0.5" style="stop-color:rgb(217,100,194);stop-opacity:1"/><stop offset="1" style="stop-color:rgb(200,173,63);stop-opacity:1"/></linearGradient>
        <linearGradient id="_Linear2" x1="0" y1="0" x2="1" y2="0" gradientUnits="userSpaceOnUse" gradientTransform="matrix(764.855,-791.743,791.743,764.855,-85.8764,1074.58)"><stop offset="0" style="stop-color:rgb(0,120,255);stop-opacity:1"/><stop offset="0.5" style="stop-color:rgb(217,100,194);stop-opacity:1"/><stop offset="1" style="stop-color:rgb(200,173,63);stop-opacity:1"/></linearGradient>
    </defs>
</svg>
